<svg xmlns="http://www.w3.org/2000/svg"
          xmlns:xlink="http://www.w3.org/1999/xlink" >
          <!-- x-axis -->
          <line x1="0" y1="200" x2="1000" y2="200" stroke="#999" stroke-width="1" />
          <polyline fill="none" stroke="#333" stroke-width="1" points="0,200 1,202 2,204 3,206 4,204 5,206 6,208 7,210 8,208 9,210 10,212 11,210 12,208 13,210 14,208 15,210 16,212 17,214 18,216 19,218 20,216 21,214 22,212 23,214 24,212 25,214 26,212 27,214 28,216 29,218 30,220 31,218 32,216 33,218 34,220 35,222 36,220 37,222 38,224 39,222 40,220 41,222 42,220 43,218 44,216 45,218 46,216 47,218 48,216 49,218 50,216 51,218 52,220 53,222 54,220 55,222 56,220 57,218 58,216 59,218 60,216 61,218 62,220 63,222 64,224 65,222 66,224 67,222 68,220 69,222 70,224 71,222 72,220 73,218 74,220 75,222 76,224 77,226 78,224 79,222 80,220 81,222 82,220 83,222 84,220 85,218 86,220 87,222 88,224 89,226 90,224 91,226 92,228 93,230 94,232 95,234 96,236 97,238 98,236 99,234 100,236 101,238 102,236 103,234 104,232 105,230 106,232 107,230 108,232 109,234 110,232 111,230 112,232 113,234 114,236 115,238 116,240 117,242 118,244 119,246 120,248 121,250 122,252 123,250 124,252 125,250 126,252 127,254 128,252 129,250 130,252 131,254 132,252 133,250 134,248 135,246 136,244 137,242 138,240 139,238 140,236 141,238 142,240 143,242 144,240 145,238 146,236 147,234 148,232 149,234 150,236 151,234 152,232 153,234 154,232 155,230 156,228 157,226 158,228 159,226 160,228 161,226 162,224 163,222 164,220 165,222 166,224 167,226 168,224 169,226 170,228 171,230 172,228 173,230 174,232 175,230 176,228 177,230 178,232 179,230 180,232 181,230 182,232 183,234 184,232 185,234 186,232 187,230 188,232 189,234 190,232 191,230 192,232 193,234 194,232 195,234 196,232 197,234 198,236 199,234 200,236 201,238 202,236 203,234 204,236 205,238 206,236 207,234 208,232 209,230 210,228 211,230 212,228 213,230 214,228 215,226 216,228 217,226 218,224 219,222 220,224 221,222 222,220 223,222 224,224 225,226 226,228 227,226 228,224 229,226 230,224 231,226 232,224 233,222 234,224 235,226 236,228 237,230 238,228 239,226 240,224 241,226 242,228 243,230 244,232 245,234 246,232 247,230 248,228 249,230 250,232 251,234 252,232 253,230 254,228 255,226 256,224 257,222 258,220 259,218 260,216 261,218 262,216 263,214 264,212 265,214 266,212 267,210 268,212 269,210 270,208 271,206 272,204 273,206 274,208 275,206 276,208 277,210 278,208 279,206 280,204 281,202 282,204 283,202 284,200 285,198 286,196 287,198 288,196 289,198 290,196 291,194 292,196 293,198 294,196 295,194 296,196 297,198 298,200 299,198 300,200 301,198 302,196 303,198 304,196 305,194 306,192 307,190 308,192 309,194 310,196 311,194 312,196 313,198 314,200 315,202 316,200 317,198 318,196 319,194 320,192 321,194 322,196 323,194 324,196 325,194 326,196 327,194 328,192 329,190 330,188 331,190 332,188 333,190 334,192 335,194 336,196 337,198 338,200 339,202 340,204 341,206 342,208 343,206 344,204 345,202 346,200 347,202 348,200 349,202 350,200 351,198 352,200 353,202 354,204 355,206 356,208 357,210 358,212 359,210 360,208 361,210 362,208 363,206 364,208 365,206 366,204 367,206 368,208 369,206 370,208 371,206 372,204 373,202 374,200 375,202 376,204 377,206 378,208 379,210 380,208 381,210 382,212 383,210 384,212 385,214 386,212 387,210 388,212 389,214 390,216 391,218 392,220 393,222 394,220 395,218 396,216 397,218 398,220 399,218 400,220 401,218 402,220 403,222 404,220 405,218 406,220 407,218 408,216 409,214 410,212 411,214 412,216 413,214 414,212 415,210 416,208 417,206 418,204 419,206 420,208 421,210 422,212 423,210 424,212 425,214 426,212 427,214 428,212 429,214 430,212 431,214 432,212 433,210 434,212 435,214 436,216 437,218 438,220 439,222 440,224 441,226 442,224 443,226 444,228 445,230 446,232 447,230 448,232 449,230 450,232 451,234 452,232 453,234 454,236 455,238 456,240 457,242 458,240 459,242 460,240 461,242 462,244 463,242 464,244 465,246 466,244 467,246 468,248 469,250 470,252 471,254 472,256 473,254 474,252 475,250 476,252 477,250 478,252 479,250 480,252 481,254 482,256 483,258 484,256 485,258 486,260 487,258 488,256 489,258 490,256 491,258 492,256 493,258 494,260 495,258 496,256 497,254 498,256 499,258 500,256 501,254 502,252 503,254 504,256 505,254 506,252 507,254 508,256 509,258 510,260 511,262 512,260 513,262 514,260 515,258 516,260 517,258 518,256 519,254 520,252 521,250 522,252 523,250 524,252 525,254 526,252 527,250 528,252 529,250 530,248 531,250 532,252 533,254 534,256 535,258 536,260 537,262 538,260 539,258 540,256 541,254 542,256 543,258 544,256 545,254 546,256 547,254 548,256 549,254 550,256 551,254 552,256 553,254 554,252 555,254 556,252 557,254 558,256 559,258 560,256 561,258 562,256 563,258 564,260 565,258 566,260 567,262 568,264 569,262 570,260 571,262 572,264 573,262 574,260 575,258 576,256 577,258 578,256 579,258 580,256 581,254 582,256 583,258 584,256 585,258 586,260 587,258 588,256 589,254 590,252 591,254 592,252 593,254 594,256 595,258 596,260 597,262 598,264 599,262 600,264 601,266 602,264 603,266 604,268 605,270 606,272 607,274 608,276 609,278 610,280 611,282 612,280 613,282 614,280 615,282 616,280 617,278 618,280 619,282 620,280 621,278 622,276 623,278 624,276 625,274 626,276 627,274 628,272 629,270 630,268 631,270 632,268 633,266 634,268 635,270 636,272 637,270 638,268 639,266 640,264 641,266 642,268 643,270 644,272 645,274 646,276 647,278 648,280 649,278 650,280 651,278 652,280 653,278 654,280 655,278 656,276 657,278 658,280 659,278 660,280 661,282 662,280 663,278 664,280 665,282 666,284 667,286 668,284 669,286 670,288 671,286 672,288 673,290 674,292 675,294 676,296 677,298 678,300 679,302 680,300 681,302 682,300 683,302 684,304 685,306 686,308 687,310 688,312 689,314 690,312 691,310 692,312 693,314 694,316 695,318 696,320 697,318 698,316 699,318 700,316 701,318 702,320 703,318 704,316 705,314 706,312 707,314 708,312 709,314 710,316 711,314 712,316 713,318 714,320 715,318 716,320 717,322 718,320 719,318 720,320 721,318 722,316 723,314 724,312 725,310 726,312 727,310 728,312 729,310 730,308 731,310 732,312 733,310 734,312 735,310 736,312 737,314 738,312 739,314 740,312 741,314 742,312 743,314 744,316 745,318 746,316 747,314 748,312 749,314 750,312 751,314 752,316 753,314 754,316 755,314 756,312 757,314 758,316 759,318 760,316 761,318 762,316 763,318 764,320 765,318 766,320 767,322 768,324 769,326 770,324 771,322 772,324 773,326 774,328 775,326 776,328 777,326 778,328 779,326 780,324 781,326 782,324 783,326 784,328 785,330 786,332 787,334 788,336 789,338 790,340 791,338 792,340 793,338 794,340 795,338 796,336 797,338 798,340 799,342 800,340 801,338 802,336 803,334 804,336 805,334 806,332 807,330 808,332 809,330 810,332 811,330 812,328 813,326 814,324 815,326 816,324 817,322 818,324 819,322 820,324 821,326 822,324 823,326 824,328 825,326 826,328 827,326 828,328 829,330 830,332 831,330 832,328 833,326 834,324 835,322 836,320 837,318 838,320 839,322 840,320 841,318 842,320 843,318 844,320 845,318 846,320 847,322 848,320 849,322 850,324 851,322 852,324 853,322 854,324 855,322 856,324 857,326 858,324 859,322 860,320 861,322 862,320 863,322 864,320 865,322 866,320 867,318 868,320 869,322 870,324 871,322 872,320 873,322 874,320 875,322 876,324 877,326 878,324 879,322 880,320 881,318 882,316 883,318 884,320 885,322 886,320 887,322 888,324 889,326 890,328 891,326 892,328 893,330 894,328 895,326 896,324 897,322 898,320 899,318 900,316 901,314 902,316 903,318 904,316 905,318 906,316 907,314 908,316 909,314 910,316 911,318 912,316 913,318 914,316 915,314 916,316 917,314 918,316 919,318 920,320 921,322 922,324 923,322 924,324 925,322 926,324 927,322 928,324 929,322 930,324 931,322 932,320 933,318 934,320 935,318 936,320 937,322 938,324 939,322 940,320 941,318 942,320 943,318 944,320 945,322 946,324 947,326 948,328 949,330 950,332 951,334 952,332 953,330 954,328 955,330 956,328 957,330 958,332 959,330 960,332 961,334 962,336 963,334 964,332 965,334 966,336 967,334 968,332 969,330 970,328 971,326 972,324 973,326 974,328 975,326 976,324 977,326 978,328 979,330 980,328 981,326 982,328 983,326 984,328 985,330 986,332 987,330 988,332 989,330 990,328 991,330 992,332 993,334 994,336 995,338 996,336 997,338 998,336 999,334 1000,336" />
          <rect x="995" y="332"
      width="4" height="4"
      fill="red" stroke="none" stroke-width="0" />
   <text x="1005" y="340" font-family="Verdana" font-size="9" fill="red" >-136</text>
        </svg>
